<svg xmlns="http://www.w3.org/2000/svg" width="38" height="38" fill="none"><g clip-path="url(#a)"><path fill="#fff" d="M12.667 19h-1zm12.666 0h1zM19 25.333v1zm0-9.5v1zm3.276 18.66.206.98zm-6.553 0-.206.98zM4.336 13.018l-.926-.378zm-.83 9.26-.979.205zm12.217-18.77-.206-.98zm6.553 0 .206-.98zm11.26 9.567.29.957zm-29.074 0-.29.956zm28.278.325A14.8 14.8 0 0 1 33.833 19h2c0-2.247-.44-4.394-1.242-6.357zM33.833 19c0 1.054-.11 2.08-.318 3.07l1.957.412A17 17 0 0 0 35.833 19zm-.318 3.07A14.85 14.85 0 0 1 22.07 33.516l.412 1.957a16.85 16.85 0 0 0 12.99-12.99zM22.07 33.516c-.99.209-2.016.318-3.07.318v2a17 17 0 0 0 3.482-.36zm-3.07.318c-1.054 0-2.08-.11-3.07-.318l-.413 1.957a17 17 0 0 0 3.483.361zM4.167 19c0-1.985.389-3.877 1.095-5.605l-1.852-.756A16.8 16.8 0 0 0 2.167 19zm11.762 14.515A14.85 14.85 0 0 1 4.485 22.071l-1.958.411a16.85 16.85 0 0 0 12.99 12.99zM4.485 22.071A15 15 0 0 1 4.166 19h-2a17 17 0 0 0 .361 3.482zm.777-8.676c1.836-4.497 5.817-7.89 10.667-8.91l-.412-1.958C10.007 3.687 5.494 7.537 3.41 12.64zm10.667-8.91c.99-.209 2.017-.318 3.07-.318v-2a17 17 0 0 0-3.482.36zM19 4.167c1.055 0 2.082.11 3.072.318l.411-1.958A17 17 0 0 0 19 2.168zm3.072.318c4.851 1.02 8.833 4.415 10.669 8.914l1.851-.756C32.51 7.54 27.994 3.687 22.482 2.528zm-.747-.675c.437 1.37 2.059 6.65 2.724 11.505l1.981-.271c-.69-5.037-2.357-10.454-2.8-11.842zm2.724 11.505c.178 1.302.285 2.557.285 3.685h2c0-1.247-.117-2.596-.304-3.956zm9.198-3.198c-1.74.528-5.012 1.456-8.389 2.08l.363 1.966c3.482-.643 6.834-1.594 8.606-2.132zm-8.389 2.08c-2.048.377-4.1.636-5.857.636v2c1.93 0 4.116-.282 6.22-.67zM24.333 19c0 1.67-.234 3.61-.583 5.559l1.969.352c.359-2.007.614-4.074.614-5.911zm-.583 5.559c-.764 4.273-2.047 8.442-2.426 9.63l1.905.609c.388-1.216 1.703-5.483 2.49-9.887zm10.44-3.235c-1.19.38-5.358 1.662-9.631 2.426l.352 1.97c4.404-.788 8.671-2.103 9.887-2.49zm-9.631 2.426c-1.95.349-3.888.583-5.56.583v2c1.838 0 3.905-.255 5.912-.614zm-5.56.583c-1.67 0-3.608-.234-5.558-.583l-.352 1.97c2.007.358 4.074.613 5.91.613zm-5.558-.583C9.168 22.986 5 21.703 3.81 21.324l-.608 1.905c1.216.388 5.483 1.703 9.887 2.49zM11.666 19c0 1.837.256 3.904.615 5.91l1.968-.351c-.348-1.95-.583-3.888-.583-5.559zm.615 5.91c.787 4.405 2.102 8.672 2.49 9.888l1.905-.608c-.38-1.19-1.662-5.358-2.426-9.631zm2.49-21.708c-.443 1.388-2.11 6.805-2.8 11.842l1.98.271c.666-4.855 2.288-10.134 2.725-11.505zm-2.8 11.842c-.187 1.36-.305 2.71-.305 3.956h2c0-1.128.107-2.383.286-3.685zm7.029-.21c-1.758 0-3.81-.26-5.857-.638l-.363 1.967c2.104.388 4.29.67 6.22.67zm-5.857-.638c-3.378-.623-6.65-1.552-8.391-2.08l-.58 1.914c1.771.538 5.124 1.49 8.608 2.133zm20.062-2.062.04-.017.581 1.914q.159-.048.3-.122zM3.815 13.87q.164.102.356.16l.58-1.913q.06.018.107.047z"/></g><defs><clipPath id="a"><path fill="#fff" d="M0 0h38v38H0z"/></clipPath></defs></svg>