<svg xmlns="http://www.w3.org/2000/svg" width="38" height="38" fill="none"><g clip-path="url(#a)"><path fill="#FAFAFA" d="m15.632 28.232-.866-.5zm-2.781 4.818.866.5zm-9.953-5.746-.866-.5zm2.781-4.818.866.5zm4.19 10.308-.947.324zm-.386-1.13.946-.323zM5.78 29.529l-.193-.981zm-1.17.23.192.982zM8.3 29.44l.5-.866zm-6.277.335-.82.572zm14.412-2.966-.799-.602-.048.064-.037.07zm5.492 1.423.866-.5zm2.781 4.818.866-.5zm9.953-5.746.866-.5zm-2.781-4.818-.866.5zm-4.19 10.308.947.324zm.386-1.13-.946-.323zm3.702-2.136.193-.981zm1.17.23-.192.982zm2.588.017.82.572zm-14.419-2.98h-1v.248l.116.22zM7.643 19.868l-.896.444zm8.891 6.81.194-.981zm4.583.064-.166-.987zm9.144-6.687-.888-.458zm-23.165.21.751.66zm.237-6.014C7.333 7.807 12.557 2.583 19 2.583v-2c-7.548 0-13.667 6.12-13.667 13.667zM19 2.583c6.443 0 11.667 5.224 11.667 11.667h2C32.667 6.702 26.547.583 19 .583zm-4.234 25.15-2.781 4.817 1.732 1 2.781-4.818zm-11.002.07 2.781-4.817-1.732-1-2.78 4.817zm7.05 4.668-.385-1.13-1.893.647.386 1.13zm-5.226-3.924-1.17.23.385 1.962 1.171-.23zm4.84 2.794c-.21-.615-.396-1.167-.605-1.595-.222-.452-.522-.883-1.023-1.172l-1 1.732c.024.014.097.056.226.32.141.288.283.697.51 1.362zm-4.454-.832c.69-.136 1.116-.217 1.436-.24.293-.02.365.023.39.037l1-1.732c-.502-.29-1.024-.334-1.527-.3-.475.033-1.046.147-1.685.273zm-3.942-3.706c-.376.651-.715 1.235-.907 1.71-.182.453-.383 1.173.078 1.834l1.64-1.144c.159.228.003.392.138.057.125-.312.374-.748.783-1.457zm2.385 1.974c-.795.157-1.28.25-1.608.266-.35.017-.13-.076.034.16l-1.64 1.144c.466.668 1.218.717 1.705.693.51-.025 1.167-.157 1.895-.3zm7.568 3.773c-.41.708-.662 1.142-.87 1.406-.223.285-.158.067.118.09l-.17 1.994c.802.068 1.326-.466 1.626-.85.317-.404.652-.99 1.028-1.64zm-3.063.568c.24.702.455 1.338.688 1.791.222.434.64 1.061 1.453 1.13l.17-1.992c.287.025.316.262.156-.05-.15-.293-.312-.76-.574-1.526zM6.545 22.986c.672-1.163.993-1.71 1.302-2.062l-1.503-1.319c-.472.538-.907 1.301-1.53 2.381zm9.953 5.746c.333-.577.608-1.052.821-1.456l-1.768-.934c-.192.363-.445.801-.785 1.39zm4.563 0 2.781 4.818 1.732-1-2.78-4.818zm14.466-1.928-2.781-4.818-1.732 1 2.781 4.817zm-6.89 6.314.386-1.13-1.893-.647-.386 1.13zm2.948-2.609 1.17.23.387-1.962-1.171-.23zm-2.562 1.48c.227-.666.37-1.075.51-1.364.13-.263.202-.305.226-.32l-1-1.731c-.501.29-.8.72-1.022 1.172-.21.428-.396.98-.607 1.595zm2.948-3.442c-.639-.126-1.21-.24-1.685-.273-.503-.034-1.025.01-1.527.3l1 1.732c.025-.014.097-.056.39-.036.32.022.746.104 1.436.24zm1.824-.744c.41.709.658 1.145.783 1.457.135.335-.02.17.138-.057l1.64 1.144c.461-.66.26-1.381.078-1.834-.191-.475-.531-1.059-.907-1.71zm-1.04 2.936c.73.144 1.387.276 1.896.301.487.024 1.24-.024 1.705-.693l-1.64-1.144c.164-.236.385-.143.034-.16-.328-.017-.813-.11-1.608-.266zm-8.913 2.81c.376.651.712 1.237 1.028 1.64.3.385.824.92 1.627.85l-.171-1.992c.276-.024.34.194.118-.09-.207-.266-.46-.699-.87-1.407zm2.902-1.078c-.262.767-.424 1.233-.574 1.526-.16.312-.13.075.156.05l.17 1.993c.813-.07 1.23-.697 1.454-1.13.232-.454.447-1.09.687-1.792zm-3.95-4.739a46 46 0 0 1-.792-1.402l-1.77.932c.215.407.492.887.83 1.47zm-14.255-8.31a11.6 11.6 0 0 1-1.206-5.172h-2c0 2.174.509 4.233 1.414 6.06zM19 25.918a11.7 11.7 0 0 1-2.271-.221l-.387 1.962c.86.17 1.75.259 2.659.259zm-2.271-.221a11.69 11.69 0 0 1-8.189-6.273l-1.792.888a13.69 13.69 0 0 0 9.594 7.347zm.506 1.714.1-.132-1.598-1.202-.1.131zm3.717-1.656a12 12 0 0 1-1.951.163v2q1.167-.001 2.283-.19zm1.166 1.042v-.055h-2v.055zm8.55-12.546c0 1.929-.468 3.745-1.294 5.346l1.777.917a13.6 13.6 0 0 0 1.517-6.263zm-1.294 5.346a11.68 11.68 0 0 1-8.422 6.158l.332 1.973a13.68 13.68 0 0 0 9.867-7.214zm3.373 2.39c-.722-1.25-1.193-2.088-1.798-2.659l-1.373 1.454c.338.32.645.83 1.439 2.205zM7.847 20.924a.8.8 0 0 1 .24-.162L7.2 18.971a2.7 2.7 0 0 0-.855.634z"/></g><defs><clipPath id="a"><path fill="#fff" d="M0 0h38v38H0z"/></clipPath></defs></svg>