<svg xmlns="http://www.w3.org/2000/svg" width="38" height="38" fill="none"><g clip-path="url(#a)"><path stroke="#FAFAFA" stroke-linecap="round" stroke-width="2" d="m14.54 33.25.476.633c2.137 2.85 6.412 2.85 8.55 0l.475-.633M6.913 24.62l.164.337a6.29 6.29 0 0 0 5.655 3.543H25.75a6.036 6.036 0 0 0 4.107-10.459l-.07-.064a6.15 6.15 0 0 1-1.917-5.27l.103-.818c.578-4.631-3.033-8.722-7.7-8.722h-2.697c-4.662 0-8.269 4.086-7.69 8.712l.125 1.005a5.78 5.78 0 0 1-1.816 4.965 5.78 5.78 0 0 0-1.28 6.771Z"/></g><defs><clipPath id="a"><path fill="#fff" d="M0 0h38v38H0z"/></clipPath></defs></svg>