<svg xmlns="http://www.w3.org/2000/svg" width="38" height="38" fill="none"><g clip-path="url(#a)"><path stroke="#FAFAFA" stroke-width="2" d="M7.917 17.54v4.035c0 2.948 0 4.421.387 5.614a7.92 7.92 0 0 0 5.083 5.082c1.193.388 2.666.388 5.613.388s4.42 0 5.613-.388a7.92 7.92 0 0 0 5.083-5.082c.388-1.193.388-2.666.388-5.614v-4.03m0 0c-1.516.615-3.389 1.282-5.617 2.078l-3.336 1.192c-1.055.376-1.582.565-2.13.565-.55 0-1.076-.189-2.13-.565l-3.337-1.192C6.566 17.134 3.082 15.89 3.082 13.659s3.484-3.476 10.452-5.965l3.336-1.191c1.055-.377 1.582-.565 2.13-.565.549 0 1.076.188 2.13.565l3.337 1.191c6.968 2.489 10.452 3.733 10.452 5.965 0 1.518-1.611 2.58-4.835 3.887Z"/><path fill="#FAFAFA" fill-rule="evenodd" d="m13.035 6.611 3.436-1.227.155-.055c.902-.323 1.616-.579 2.374-.579.76 0 1.473.256 2.375.579l.155.055 3.436 1.227c3.4 1.215 6.072 2.17 7.886 3.107 1.752.907 3.254 2.072 3.254 3.94 0 1.87-1.502 3.035-3.254 3.941-1.814.938-4.486 1.893-7.886 3.107l-3.436 1.227-.155.056c-.902.323-1.616.578-2.375.578s-1.472-.255-2.374-.578l-.155-.056-3.436-1.227c-3.4-1.214-6.072-2.169-7.886-3.107-1.752-.906-3.254-2.072-3.254-3.94 0-1.87 1.502-3.034 3.254-3.94 1.814-.939 4.486-1.893 7.886-3.108m-6.794 5.217c-1.732.895-1.971 1.468-1.971 1.83 0 .364.24.936 1.97 1.832 1.654.855 4.173 1.757 7.693 3.015l3.337 1.191c1.132.405 1.435.496 1.73.496.296 0 .6-.091 1.731-.496l3.337-1.191c3.52-1.258 6.04-2.16 7.692-3.015 1.732-.896 1.971-1.469 1.971-1.831 0-.363-.24-.936-1.97-1.831-1.654-.856-4.173-1.758-7.693-3.015L20.73 7.62c-1.132-.404-1.435-.496-1.73-.496-.296 0-.6.092-1.731.496l-3.337 1.192c-3.52 1.257-6.04 2.16-7.692 3.015" clip-rule="evenodd"/><path fill="#fff" d="M2 26a1 1 0 1 0 2 0zm0-12v12h2V14z"/></g><defs><clipPath id="a"><path fill="#fff" d="M0 0h38v38H0z"/></clipPath></defs></svg>