<svg xmlns="http://www.w3.org/2000/svg" width="38" height="38" fill="none"><g clip-path="url(#a)"><path fill="#fff" d="M12.667 27.5a1 1 0 1 0 0 2zm12.666 2a1 1 0 0 0 0-2zm-9.5-8.333a1 1 0 1 0 0 2zm6.334 2a1 1 0 1 0 0-2zm-9.5-8.334a1 1 0 1 0 0 2zm12.666 2a1 1 0 1 0 0-2zM8.013 33.321l.588-.809zM6.262 31.57l.809-.588zm25.476 0-.809-.588zm-1.751 1.751-.588-.809zm0-28.642.587-.81zm1.751 1.751-.809.588zM8.013 4.679l.588.809zM6.262 6.43l.809.588zm14.553 4.013.156.987zm-2.477 0-.157.987zM12.667 29.5h12.666v-2H12.667zm3.166-6.333h6.334v-2h-6.334zm-3.166-6.334h12.666v-2H12.667zm19.583.584v3.166h2v-3.166zm-26.5 3.166v-3.166h-2v3.166zM19 33.833c-2.99 0-5.154-.001-6.832-.183-1.659-.18-2.725-.526-3.567-1.138L7.426 34.13c1.239.9 2.698 1.31 4.527 1.508 1.81.197 4.1.195 7.047.195zM3.75 20.583c0 2.947-.001 5.237.195 7.047.198 1.83.607 3.288 1.508 4.528l1.618-1.176c-.612-.841-.958-1.908-1.138-3.567-.182-1.678-.183-3.84-.183-6.832zm4.851 11.93a6.9 6.9 0 0 1-1.53-1.53l-1.618 1.175a8.9 8.9 0 0 0 1.973 1.972zm23.649-11.93c0 2.991-.001 5.154-.183 6.832-.18 1.66-.526 2.726-1.138 3.567l1.618 1.176c.9-1.24 1.31-2.698 1.508-4.528.196-1.81.195-4.1.195-7.047zM19 35.833c2.946 0 5.236.002 7.047-.194 1.83-.199 3.288-.608 4.527-1.509L29.4 32.512c-.842.612-1.908.958-3.567 1.138-1.678.182-3.841.183-6.832.183zm11.929-4.85a6.9 6.9 0 0 1-1.53 1.53l1.175 1.617a8.9 8.9 0 0 0 1.973-1.972zm3.321-13.566c0-2.947.001-5.237-.195-7.047-.198-1.83-.608-3.288-1.508-4.528L30.93 7.018c.612.841.958 1.908 1.138 3.567.182 1.678.183 3.84.183 6.832zm-4.851-11.93a6.9 6.9 0 0 1 1.53 1.53l1.618-1.175a8.9 8.9 0 0 0-1.973-1.972zM5.75 17.418c0-2.991.001-5.154.183-6.832.18-1.66.526-2.726 1.138-3.567L5.453 5.842c-.9 1.24-1.31 2.698-1.508 4.528-.196 1.81-.195 4.1-.195 7.047zM7.426 3.87a8.9 8.9 0 0 0-1.973 1.972L7.07 7.018a6.9 6.9 0 0 1 1.53-1.53zm13.232 5.585a6.9 6.9 0 0 1-2.164 0l-.313 1.975a8.9 8.9 0 0 0 2.79 0zm7.833-5.964c-1.962 1.96-3.401 3.377-4.648 4.359-1.232.97-2.195 1.448-3.185 1.605l.313 1.975c1.458-.23 2.736-.927 4.11-2.009 1.358-1.07 2.887-2.58 4.823-4.516zM19 4.167c2.628 0 4.62 0 6.213.125 1.59.125 2.682.369 3.534.799l.9-1.786c-1.192-.601-2.585-.873-4.277-1.006-1.689-.133-3.772-.132-6.37-.132zm9.747.924q.346.174.652.397l1.175-1.618a7 7 0 0 0-.926-.565zm-19.84-.527c2.046 2.046 3.642 3.64 5.046 4.763 1.419 1.135 2.73 1.866 4.228 2.103l.313-1.975c-1.018-.161-2.008-.663-3.291-1.69-1.298-1.038-2.806-2.539-4.882-4.615zM19 2.167c-2.276 0-4.154 0-5.713.088s-2.87.267-3.999.657l.653 1.89c.871-.3 1.968-.466 3.459-.55 1.49-.085 3.304-.085 5.6-.085zm-9.712.745a7 7 0 0 0-1.862.958L8.6 5.488a5 5 0 0 1 1.34-.685z"/></g><defs><clipPath id="a"><path fill="#fff" d="M0 0h38v38H0z"/></clipPath></defs></svg>