<svg xmlns="http://www.w3.org/2000/svg" width="38" height="38" fill="none"><g clip-path="url(#a)"><path stroke="#FAFAFA" stroke-width="2" d="M23.321 3.167a2.77 2.77 0 0 1 2.77 2.77 2.77 2.77 0 0 0 2.772 2.771h.933c1.918 0 3.5 1.467 3.427 3.384-.128 3.345-.779 8.62-3.315 13.241-.67 1.22-1.578 2.443-2.587 3.61-3.135 3.621-4.703 5.432-8.32 5.432-3.619 0-5.186-1.81-8.321-5.433-1.01-1.166-1.918-2.39-2.587-3.609-2.46-4.483-3.147-9.247-3.303-12.336-.096-1.91 1.484-3.365 3.397-3.365h.49a3.233 3.233 0 0 0 3.232-3.233 3.233 3.233 0 0 1 3.233-3.232z"/></g><defs><clipPath id="a"><path fill="#fff" d="M0 0h38v38H0z"/></clipPath></defs></svg>