<svg xmlns="http://www.w3.org/2000/svg" width="38" height="38" fill="none"><g clip-path="url(#a)"><path fill="#fff" d="m35.821 14.392-2.486-1.641-5.428-6.89a1.11 1.11 0 0 0-.875-.424H4.255A4.26 4.26 0 0 0 0 9.69v15.22c0 1.75 1.19 3.228 2.802 3.67a4.94 4.94 0 0 0 4.837 3.982 4.94 4.94 0 0 0 4.81-3.847h10.979a4.94 4.94 0 0 0 4.809 3.847 4.94 4.94 0 0 0 4.809-3.847h1.149A3.81 3.81 0 0 0 38 24.911v-6.777a4.3 4.3 0 0 0-2.179-3.742m-5.24-1.538h-8.915v-5.19h4.826zM7.64 30.337a2.707 2.707 0 0 1-2.703-2.704 2.706 2.706 0 0 1 2.703-2.703 2.707 2.707 0 0 1 2.704 2.703 2.707 2.707 0 0 1-2.704 2.704m0-7.634a4.94 4.94 0 0 0-4.72 3.513 1.58 1.58 0 0 1-.692-1.305v-4.303H4.17a1.113 1.113 0 0 0 0-2.227H2.227v-8.69a2.03 2.03 0 0 1 2.028-2.028H19.44V26.49h-7.006a4.94 4.94 0 0 0-4.795-3.787m20.598 7.634a2.707 2.707 0 0 1-2.704-2.704 2.706 2.706 0 0 1 2.704-2.703 2.706 2.706 0 0 1 2.703 2.703 2.707 2.707 0 0 1-2.703 2.704m5.958-3.847h-1.163a4.94 4.94 0 0 0-4.795-3.787 4.94 4.94 0 0 0-4.795 3.787h-1.776V15.08h11.156l1.806 1.192q.036.024.074.045a2.08 2.08 0 0 1 1.071 1.817v.247H33.55a1.113 1.113 0 0 0 0 2.227h2.223v4.303a1.58 1.58 0 0 1-1.578 1.579"/></g><defs><clipPath id="a"><path fill="#fff" d="M0 0h38v38H0z"/></clipPath></defs></svg>