<svg width="233" height="57" viewBox="0 0 233 57" fill="none" xmlns="http://www.w3.org/2000/svg">
<path d="M62.18 45.738C60.5814 45.738 59.0927 45.4615 57.714 44.9084C56.3552 44.3554 55.1763 43.5872 54.1772 42.604C53.178 41.6002 52.3987 40.4326 51.8392 39.1012C51.2797 37.7697 51 36.3153 51 34.738C51 33.1608 51.2797 31.7064 51.8392 30.3749C52.3987 29.0434 53.178 27.8861 54.1772 26.9028C55.1763 25.8991 56.3552 25.1207 57.714 24.5676C59.0728 24.0146 60.5614 23.738 62.18 23.738C63.7785 23.738 65.2472 24.0146 66.586 24.5676C67.9448 25.1002 69.1237 25.8684 70.1228 26.8721C71.1419 27.8554 71.9212 29.0127 72.4608 30.3442C73.0203 31.6757 73.3 33.1403 73.3 34.738C73.3 36.3358 73.0203 37.8004 72.4608 39.1319C71.9212 40.4634 71.1419 41.631 70.1228 42.6347C69.1237 43.6179 67.9448 44.3861 66.586 44.9392C65.2472 45.4717 63.7785 45.738 62.18 45.738ZM62.18 43.0034C63.3389 43.0034 64.408 42.7986 65.3871 42.3889C66.3862 41.9792 67.2454 41.4056 67.9648 40.6682C68.7041 39.9103 69.2736 39.0295 69.6733 38.0257C70.0929 37.022 70.3027 35.9261 70.3027 34.738C70.3027 33.55 70.0929 32.4541 69.6733 31.4503C69.2736 30.4466 68.7041 29.576 67.9648 28.8386C67.2454 28.0807 66.3862 27.4969 65.3871 27.0872C64.408 26.6775 63.3389 26.4727 62.18 26.4727C61.001 26.4727 59.912 26.6775 58.9129 27.0872C57.9338 27.4969 57.0746 28.0807 56.3352 28.8386C55.5959 29.576 55.0164 30.4466 54.5968 31.4503C54.1971 32.4541 53.9973 33.55 53.9973 34.738C53.9973 35.9261 54.1971 37.022 54.5968 38.0257C55.0164 39.0295 55.5959 39.9103 56.3352 40.6682C57.0746 41.4056 57.9338 41.9792 58.9129 42.3889C59.912 42.7986 61.001 43.0034 62.18 43.0034Z" fill="#2E9CCA"/>
<path d="M77 45.738V24.738H79.97V40.938L90.5 24.738H94.15V45.738H91V29.568L80.5 45.738H77Z" fill="#2E9CCA"/>
<path d="M82.1808 21.6869C82.9679 22.3877 84.0787 22.738 85.5131 22.738C86.93 22.738 88.0233 22.3877 88.793 21.6869C89.5802 20.9862 89.9825 20.0032 90 18.738L88.5 18.238C88.4825 18.9972 87.9898 19.8098 87.5 20.238C87.0277 20.6468 86.2872 20.738 85.5 20.738C84.6953 20.738 83.9723 20.6468 83.5 20.238C83.0277 19.8098 82.5175 18.9972 82.5 18.238L81 18.738C81.0175 20.0032 81.4111 20.9862 82.1808 21.6869Z" fill="#2E9CCA"/>
<path d="M99.5 45.738C97.5 45.738 96.5 45.238 96.5 45.238L97 42.738C97.32 42.818 98.0011 42.858 98.3211 42.858C99.2011 42.858 99.6099 42.6098 100.27 42.138C101.408 41.3245 101.68 40.378 101.92 38.958C102.18 37.538 102.42 35.398 102.5 33.238L103 24.738H116.04V45.738H113.1V26.568L113.82 27.348L105.08 27.438L105.74 26.628L105.5 33.588C105.44 35.668 105.501 33.5448 105.501 33.5448C105.501 33.5448 104.94 41.198 104.5 42.238C104.06 43.278 103.2 44.218 102.5 44.738C101.82 45.258 100.54 45.738 99.5 45.738Z" fill="#2E9CCA"/>
<path d="M132.17 45.738V26.568L132.92 27.348H125.5V24.738L142 24.738V27.348H134.39L135.11 26.568V45.738H132.17Z" fill="#2E9CCA"/>
<path d="M144.55 45.738V24.7379L149.5 24.738C151.34 24.738 153.7 24.6579 155 25.2379C156.3 25.8179 157.007 26.2479 157.707 27.3479C158.407 28.4479 158.5 30.2379 158.5 30.2379C158.5 30.2379 158.5 32.738 157.5 33.7379C156.5 34.7379 156.226 34.968 154.5 35.7379C153.2 36.3179 151.58 36.378 149.74 36.378H146.2L147.55 34.968V45.738H144.55ZM147.55 35.268L146.2 33.768H149.65C151.57 33.768 153.02 33.3579 154 32.538C155 31.7179 154.93 29.3561 154 28.5779C153.02 27.7579 151.57 27.3479 149.65 27.3479H146.2L147.55 25.8479V35.268Z" fill="#2E9CCA"/>
<path d="M157.96 45.738L166.51 24.738H169.48L178.65 45.738H175.5L167.38 26.418H168.58L161.05 45.738H157.96ZM161.05 40.488L161.86 38.088H173.68L174.55 40.488H161.05Z" fill="#2E9CCA"/>
<path d="M212.6 45.218C211 45.218 209.52 44.958 208.16 44.438C206.82 43.898 205.65 43.148 204.65 42.188C203.67 41.208 202.9 40.068 202.34 38.768C201.78 37.468 201.5 36.038 201.5 34.478C201.5 32.918 201.78 31.488 202.34 30.188C202.9 28.888 203.68 27.758 204.68 26.798C205.68 25.818 206.85 25.068 208.19 24.548C209.55 24.008 211.03 23.738 212.63 23.738C214.25 23.738 215.74 24.018 217.1 24.578C218.48 25.118 219.65 25.928 220.61 27.008L218.66 28.898C217.86 28.058 216.96 27.438 215.96 27.038C214.96 26.618 213.89 26.408 212.75 26.408C211.57 26.408 210.47 26.608 209.45 27.008C208.45 27.408 207.58 27.968 206.84 28.688C206.1 29.408 205.52 30.268 205.1 31.268C204.7 32.248 204.5 33.318 204.5 34.478C204.5 35.638 204.7 36.718 205.1 37.718C205.52 38.698 206.1 39.548 206.84 40.268C207.58 40.988 208.45 41.548 209.45 41.948C210.47 42.348 211.57 42.548 212.75 42.548C213.89 42.548 214.96 42.348 215.96 41.948C216.96 41.528 217.86 40.888 218.66 40.028L220.61 41.918C219.65 42.998 218.48 43.818 217.1 44.378C215.74 44.938 214.24 45.218 212.6 45.218Z" fill="#2E9CCA"/>
<path fill-rule="evenodd" clip-rule="evenodd" d="M19.4999 6.23804C19.4999 6.23804 38 29.738 35 42.238C33.524 48.388 26.9282 54.3606 18.9999 54.238C11.2246 54.1178 5.46289 49.2625 3.50003 41.738C0.500091 30.238 19.4999 6.23804 19.4999 6.23804ZM19.252 10.738C19.252 10.738 33 30.238 32.5 39.738C32.1842 45.738 25.5 51.8301 19.5 51.738C13.5 51.646 7.71878 47.2035 6.18545 40.7381C4.40675 33.238 19.252 10.738 19.252 10.738Z" fill="#2E9CCA"/>
<path d="M120 39.238V36.748H127V39.238H120Z" fill="#2E9CCA"/>
<path d="M194.56 24.738H197.56V45.738H194.56V24.738ZM184.5 45.738H181.5V24.738H184.5V45.738ZM195.83 36.378H183.2V33.768H195.83V36.378Z" fill="#2E9CCA"/>
</svg>
